<svg xmlns="http://www.w3.org/2000/svg" viewBox="0 0 512 89.42">
  <defs>
    <style>
      .cls-1 {
        fill: #666;
      }
    </style>
  </defs>
  <title>Asset 1</title>
  <g id="Layer_2" data-name="Layer 2">
    <g id="Layer_1-2" data-name="Layer 1">
      <g>
        <g>
          <path class="cls-1" d="M21.6,28.33c0,5.67,0,10.33.29,12.81.18,1.71.53,3,2.3,3.25a25.87,25.87,0,0,0,2.66.24c.35,0,.47.18.47.35s-.29.47-.94.47c-3.25,0-7-.18-7.26-.18s-4,.18-5.78.18c-.65,0-.94-.12-.94-.47,0-.18.12-.35.47-.35a9.14,9.14,0,0,0,1.77-.24c1.18-.24,1.48-1.54,1.71-3.25.3-2.48.3-7.14.3-12.81v-25l-8.73.12c-3.66.06-5.08.47-6,1.89a10.42,10.42,0,0,0-1,1.83c-.18.47-.35.59-.59.59S0,7.61,0,7.26c0-.59,1.18-5.67,1.3-6.14S1.65,0,1.89,0a11.05,11.05,0,0,0,2.6.71C6.2.89,8.44,1,9.15,1H31.28A23.62,23.62,0,0,0,35.47.71c.89-.12,1.42-.3,1.65-.3s.3.35.3.71c0,1.77-.18,5.84-.18,6.49s-.18.77-.41.77-.41-.18-.47-1l-.06-.65C36.12,5,34.7,3.6,29,3.48L21.6,3.36Z"/>
          <path class="cls-1" d="M61.56,2.3C62.27.35,62.5,0,62.86,0s.59.29,1.3,2.12C65,4.37,74.31,28.74,77.91,37.71,80,43,81.74,43.91,83,44.26a7.62,7.62,0,0,0,2.36.35c.35,0,.59.06.59.35s-.53.47-1.18.47c-.89,0-5.19,0-9.27-.12-1.12-.06-1.77-.06-1.77-.41s.18-.35.41-.41.71-.65.35-1.59L69,28.39a.52.52,0,0,0-.53-.35H55.77a.62.62,0,0,0-.59.47L51.64,39a12.45,12.45,0,0,0-.83,4c0,1.18,1.24,1.71,2.24,1.71h.59c.41,0,.59.12.59.35s-.35.47-.89.47c-1.42,0-4-.18-4.6-.18s-3.89.18-6.67.18c-.77,0-1.12-.12-1.12-.47s.24-.35.53-.35,1.24-.06,1.71-.12c2.71-.35,3.89-2.6,5-5.55ZM67.7,25.91c.3,0,.3-.18.24-.41L62.33,9.56q-.44-1.33-.89,0L56.25,25.5c-.12.29,0,.41.18.41Z"/>
          <path class="cls-1" d="M103.88,30.16a12.52,12.52,0,0,0-1.36-6.2C102.11,23,94.2,10,92.13,7a16.52,16.52,0,0,0-4-4.37,5.64,5.64,0,0,0-2.54-.94c-.29,0-.59-.12-.59-.41s.24-.41.77-.41c1.12,0,5.55.18,5.84.18s2.66-.18,5-.18c.65,0,.77.18.77.41s-.35.29-.89.53a1.19,1.19,0,0,0-.77,1.06,5,5,0,0,0,.77,2.3c.94,1.71,9.8,16.94,10.86,18.65,1.12-2.48,8.62-15.4,9.8-17.35a5.76,5.76,0,0,0,1-3c0-.83-.24-1.48-.94-1.65-.53-.18-.89-.29-.89-.59s.35-.35.94-.35c1.54,0,3.42.18,3.9.18s4.6-.18,5.72-.18c.41,0,.77.12.77.35s-.29.47-.77.47a5.62,5.62,0,0,0-2.71.83,11.24,11.24,0,0,0-3.13,3C119,7.85,110.78,21.72,109.72,24.26a14.12,14.12,0,0,0-.89,5.9v5.08c0,.94,0,3.42.18,5.9.12,1.71.65,3,2.42,3.25a25.87,25.87,0,0,0,2.66.24c.35,0,.47.18.47.35s-.29.47-.94.47c-3.25,0-7-.18-7.26-.18s-4,.18-5.78.18c-.65,0-.94-.12-.94-.47,0-.18.12-.35.47-.35a9.14,9.14,0,0,0,1.77-.24c1.18-.24,1.71-1.54,1.83-3.25.18-2.48.18-5,.18-5.9Z"/>
          <path class="cls-1" d="M146.78,28.45c0,8.68.24,12.45,1.3,13.52s2.48,1.36,7.08,1.36c3.13,0,5.72-.06,7.14-1.77A8.23,8.23,0,0,0,163.84,38c.06-.47.18-.77.53-.77s.35.24.35.89a37.66,37.66,0,0,1-.89,5.9c-.41,1.36-.59,1.59-3.72,1.59-4.25,0-7.32-.12-9.8-.18s-4.31-.18-6-.18c-.24,0-1.24.06-2.42.06s-2.48.12-3.36.12c-.65,0-.94-.12-.94-.47,0-.18.12-.35.47-.35a9.14,9.14,0,0,0,1.77-.24c1.18-.24,1.48-1.54,1.71-3.25.3-2.48.3-7.14.3-12.81V17.94c0-9.21,0-10.86-.12-12.75s-.59-3-2.54-3.36a11,11,0,0,0-2-.18c-.24,0-.47-.12-.47-.35s.29-.47.94-.47c2.66,0,6.37.18,6.67.18s4.6-.18,6.37-.18c.65,0,.94.12.94.47s-.24.35-.47.35a13.85,13.85,0,0,0-1.95.18c-1.71.3-2.18,1.3-2.3,3.36-.12,1.89-.12,3.54-.12,12.75Z"/>
          <path class="cls-1" d="M197.78,0C211.06,0,221,8.38,221,22.13c0,13.22-9.33,24.14-23.55,24.14-16.17,0-22.9-12.57-22.9-23.2C174.52,13.52,181.49,0,197.78,0ZM199,44c5.31,0,16.29-3.07,16.29-20.24C215.31,9.62,206.69,2,197.36,2c-9.86,0-17.23,6.49-17.23,19.42C180.13,35.18,188.39,44,199,44Z"/>
          <path class="cls-1" d="M239.39,17.94c0-9.21,0-10.86-.12-12.75s-.59-3-2.54-3.36a11,11,0,0,0-2-.18c-.24,0-.47-.12-.47-.35s.29-.47.94-.47c2.66,0,6.37.18,6.67.18.65,0,5.13-.18,7-.18,3.72,0,7.67.35,10.8,2.6a10.33,10.33,0,0,1,4.07,8c0,4.37-1.83,8.73-7.14,13.63,4.84,6.2,8.85,11.45,12.28,15.11,3.19,3.36,5.73,4,7.2,4.25a14.13,14.13,0,0,0,2.3.18c.3,0,.53.18.53.35,0,.35-.35.47-1.42.47h-4.19c-3.31,0-4.78-.29-6.31-1.12-2.54-1.36-4.6-4.25-8-8.68-2.48-3.25-5.25-7.2-6.43-8.73a1,1,0,0,0-.77-.35l-7.26-.12c-.29,0-.41.18-.41.47v1.42c0,5.67,0,10.33.3,12.81.18,1.71.53,3,2.3,3.25a25.88,25.88,0,0,0,2.66.24c.35,0,.47.18.47.35s-.3.47-.94.47c-3.25,0-7-.18-7.26-.18-.06,0-3.78.18-5.55.18-.65,0-.94-.12-.94-.47,0-.18.12-.35.47-.35a9.14,9.14,0,0,0,1.77-.24c1.18-.24,1.48-1.54,1.71-3.25.3-2.48.3-7.14.3-12.81Zm4.72,5.13a.77.77,0,0,0,.41.71c.89.53,3.6.94,6.2.94a7.64,7.64,0,0,0,4.43-1.12c2.07-1.42,3.6-4.6,3.6-9.09,0-7.38-3.9-11.8-10.21-11.8a17.79,17.79,0,0,0-4,.35.71.71,0,0,0-.47.71Z"/>
          <path class="cls-1" d="M285.42,44.68c-.83-.41-.89-.65-.89-2.24,0-3,.24-5.31.3-6.26.06-.65.18-.94.47-.94s.41.18.41.65a10.35,10.35,0,0,0,.18,2.18c.89,4.37,4.78,6,8.73,6,5.67,0,8.44-4.07,8.44-7.85,0-4.07-1.71-6.43-6.79-10.62l-2.66-2.18C287.37,18.3,286,14.64,286,10.62,286,4.31,290.68,0,298.17,0a22.91,22.91,0,0,1,5.49.59,9.67,9.67,0,0,0,2.07.3c.47,0,.59.12.59.41s-.24,2.24-.24,6.26c0,.94-.12,1.36-.41,1.36s-.41-.3-.47-.77a10.36,10.36,0,0,0-.77-3c-.35-.65-1.95-3.13-7.38-3.13-4.07,0-7.26,2.54-7.26,6.85,0,3.36,1.53,5.49,7.2,9.92l1.65,1.3c7,5.49,8.62,9.15,8.62,13.87a12.23,12.23,0,0,1-5,9.8,15.52,15.52,0,0,1-8.91,2.48A17.91,17.91,0,0,1,285.42,44.68Z"/>
          <path class="cls-1" d="M389.48,28.33c0,5.67,0,10.33.29,12.81.18,1.71.53,3,2.3,3.25a25.91,25.91,0,0,0,2.66.24c.35,0,.47.18.47.35s-.3.47-.94.47c-3.25,0-7-.18-7.26-.18s-4,.18-5.78.18c-.65,0-.94-.12-.94-.47,0-.18.12-.35.47-.35a9.15,9.15,0,0,0,1.77-.24c1.18-.24,1.48-1.54,1.71-3.25.29-2.48.29-7.14.29-12.81v-6.2a.34.34,0,0,0-.35-.35h-25a.31.31,0,0,0-.35.35v6.2c0,5.67,0,10.33.29,12.81.18,1.71.53,3,2.3,3.25a25.91,25.91,0,0,0,2.66.24c.35,0,.47.18.47.35s-.3.47-.94.47c-3.25,0-7-.18-7.26-.18s-4,.18-5.78.18c-.65,0-.94-.12-.94-.47,0-.18.12-.35.47-.35a9.15,9.15,0,0,0,1.77-.24c1.18-.24,1.48-1.54,1.71-3.25.29-2.48.29-7.14.29-12.81V17.94c0-9.21,0-10.86-.12-12.75s-.59-3-2.54-3.36a11,11,0,0,0-2-.18c-.24,0-.47-.12-.47-.35s.3-.47.94-.47c2.66,0,6.37.18,6.67.18s4-.18,5.78-.18c.65,0,.94.12.94.47s-.24.35-.47.35a8.76,8.76,0,0,0-1.48.18c-1.59.3-2.07,1.3-2.18,3.36-.12,1.89-.12,3.54-.12,12.75v1.24a.31.31,0,0,0,.35.35h25a.31.31,0,0,0,.35-.35V17.94c0-9.21,0-10.86-.12-12.75s-.59-3-2.54-3.36a11,11,0,0,0-2-.18c-.24,0-.47-.12-.47-.35s.3-.47.94-.47C383,.83,386.7,1,387,1s4-.18,5.78-.18c.65,0,.94.12.94.47s-.24.35-.47.35a8.76,8.76,0,0,0-1.48.18c-1.59.3-2.07,1.3-2.18,3.36-.12,1.89-.12,3.54-.12,12.75Z"/>
          <path class="cls-1" d="M421.35,28.33c0,5.67,0,10.33.3,12.81.18,1.71.53,3,2.3,3.25a25.85,25.85,0,0,0,2.66.24c.35,0,.47.18.47.35s-.29.47-.94.47c-3.25,0-7-.18-7.26-.18s-4,.18-5.78.18c-.65,0-.94-.12-.94-.47,0-.18.12-.35.47-.35a9.15,9.15,0,0,0,1.77-.24c1.18-.24,1.48-1.54,1.71-3.25.3-2.48.3-7.14.3-12.81V17.94c0-9.21,0-10.86-.12-12.75s-.71-3-2-3.31a7.73,7.73,0,0,0-1.83-.24c-.24,0-.47-.12-.47-.35s.3-.47.94-.47c1.95,0,5.67.18,6,.18s4-.18,5.78-.18c.65,0,.94.12.94.47s-.24.35-.47.35a8.76,8.76,0,0,0-1.47.18c-1.59.3-2.07,1.3-2.18,3.36-.12,1.89-.12,3.54-.12,12.75Z"/>
          <path class="cls-1" d="M453.22,28.45c0,8.68.24,12.45,1.3,13.52s2.48,1.36,7.08,1.36c3.13,0,5.73-.06,7.14-1.77A8.23,8.23,0,0,0,470.27,38c.06-.47.18-.77.53-.77s.35.24.35.89a37.69,37.69,0,0,1-.89,5.9c-.41,1.36-.59,1.59-3.72,1.59-4.25,0-7.32-.12-9.8-.18s-4.31-.18-6-.18c-.24,0-1.24.06-2.42.06s-2.48.12-3.36.12c-.65,0-.94-.12-.94-.47,0-.18.12-.35.47-.35a9.15,9.15,0,0,0,1.77-.24c1.18-.24,1.48-1.54,1.71-3.25.29-2.48.29-7.14.29-12.81V17.94c0-9.21,0-10.86-.12-12.75s-.59-3-2.54-3.36a11,11,0,0,0-2-.18c-.24,0-.47-.12-.47-.35s.3-.47.94-.47c2.66,0,6.37.18,6.67.18s4.6-.18,6.37-.18c.65,0,.94.12.94.47s-.24.35-.47.35a13.86,13.86,0,0,0-1.95.18c-1.71.3-2.18,1.3-2.3,3.36-.12,1.89-.12,3.54-.12,12.75Z"/>
          <path class="cls-1" d="M494.06,28.45c0,8.68.24,12.45,1.3,13.52s2.48,1.36,7.08,1.36c3.13,0,5.73-.06,7.14-1.77A8.22,8.22,0,0,0,511.11,38c.06-.47.18-.77.53-.77s.35.24.35.89a37.66,37.66,0,0,1-.89,5.9c-.41,1.36-.59,1.59-3.72,1.59-4.25,0-7.32-.12-9.8-.18s-4.31-.18-6-.18c-.24,0-1.24.06-2.42.06s-2.48.12-3.36.12c-.65,0-.94-.12-.94-.47,0-.18.12-.35.47-.35a9.15,9.15,0,0,0,1.77-.24c1.18-.24,1.48-1.54,1.71-3.25.3-2.48.3-7.14.3-12.81V17.94c0-9.21,0-10.86-.12-12.75s-.59-3-2.54-3.36a11,11,0,0,0-2-.18c-.24,0-.47-.12-.47-.35s.3-.47.94-.47c2.66,0,6.37.18,6.67.18s4.6-.18,6.37-.18c.65,0,.94.12.94.47s-.24.35-.47.35a13.86,13.86,0,0,0-1.95.18c-1.71.3-2.18,1.3-2.3,3.36-.12,1.89-.12,3.54-.12,12.75Z"/>
        </g>
        <g>
          <path class="cls-1" d="M119.36,79.93c0,3.52-2.57,5.52-7.7,5.52h-9.31V64.56h8.72c4.48,0,7.19,1.88,7.19,5.34a4.76,4.76,0,0,1-3.49,4.78C117.72,75.24,119.36,77,119.36,79.93ZM103.87,65.87V74.2H111c3.61,0,5.7-1.4,5.7-4.18s-2.09-4.15-5.7-4.15Zm14,13.94c0-3-2.18-4.3-6.18-4.3h-7.79v8.63h7.79C115.66,84.14,117.84,82.82,117.84,79.81Z"/>
          <path class="cls-1" d="M125.77,75a10.46,10.46,0,0,1,10.86-10.6c6.21,0,10.86,4.51,10.86,10.6s-4.66,10.6-10.86,10.6A10.46,10.46,0,0,1,125.77,75ZM146,75a9.33,9.33,0,1,0-9.31,9.19A9,9,0,0,0,146,75Z"/>
          <path class="cls-1" d="M155.58,76.58v-12h1.52v12c0,5.22,2.51,7.67,6.86,7.67s6.83-2.45,6.83-7.67v-12h1.52v12c0,6-3.19,9-8.39,9S155.58,82.55,155.58,76.58Z"/>
          <path class="cls-1" d="M186,65.93h-7.52V64.56H195v1.37h-7.52V85.45H186Z"/>
          <path class="cls-1" d="M201.78,64.56h1.52V85.45h-1.52Z"/>
          <path class="cls-1" d="M234.22,87.06a6.13,6.13,0,0,1-4.92,2.36c-2.3,0-4.33-1.1-6.92-3.82a10.6,10.6,0,1,1,.06-21.19c6.21,0,10.86,4.51,10.86,10.6a10.37,10.37,0,0,1-9,10.45c1.73,1.82,3.37,2.69,5,2.69a5.15,5.15,0,0,0,4.12-2ZM222.43,84.2A9.19,9.19,0,1,0,213.08,75,9.06,9.06,0,0,0,222.43,84.2Z"/>
          <path class="cls-1" d="M241.37,76.58v-12h1.52v12c0,5.22,2.51,7.67,6.86,7.67s6.83-2.45,6.83-7.67v-12h1.52v12c0,6-3.19,9-8.39,9S241.37,82.55,241.37,76.58Z"/>
          <path class="cls-1" d="M282.61,84.08v1.37H268.2V64.56h14v1.37H269.72v8.24h11.13v1.34H269.72v8.57Z"/>
          <path class="cls-1" d="M318.81,64.56V85.45h-1.52V75.51h-14v9.94H301.8V64.56h1.52v9.61h14V64.56Z"/>
          <path class="cls-1" d="M327.07,75a10.46,10.46,0,0,1,10.86-10.6c6.21,0,10.86,4.51,10.86,10.6s-4.66,10.6-10.86,10.6A10.46,10.46,0,0,1,327.07,75Zm20.18,0a9.33,9.33,0,1,0-9.31,9.19A9,9,0,0,0,347.25,75Z"/>
          <path class="cls-1" d="M360.76,65.93h-7.52V64.56H369.8v1.37h-7.52V85.45h-1.52Z"/>
          <path class="cls-1" d="M391,84.08v1.37H376.54V64.56h14v1.37H378.07v8.24H389.2v1.34H378.07v8.57Z"/>
          <path class="cls-1" d="M399.49,64.56H401V84.08h12v1.37H399.49Z"/>
        </g>
      </g>
    </g>
  </g>
</svg>
