<svg xmlns="http://www.w3.org/2000/svg" xmlns:xlink="http://www.w3.org/1999/xlink" viewBox="0 0 1215.25 1237.65"><defs><style>.cls-1{fill:url(#Tin_Radial);}.cls-2{fill:url(#Tin_Radial-2);}.cls-3{fill:url(#Tin_Radial-3);}.cls-4{fill:url(#Tin_Radial-4);}.cls-5{fill:url(#Tin_Radial-5);}.cls-6{fill:url(#Tin_Radial-6);}.cls-7{fill:url(#Tin_Radial-7);}.cls-8{fill:url(#Tin_Radial-8);}.cls-9{fill:url(#Tin_Radial-9);}.cls-10{fill:url(#Tin_Radial-10);}.cls-11{fill:url(#Tin_Radial-11);}.cls-12{fill:url(#Tin_Radial-12);}.cls-13{fill:url(#Tin_Radial-13);}.cls-14{fill:url(#Tin_Radial-14);}.cls-15{fill:url(#Tin_Radial-15);}.cls-16{fill:url(#Tin_Radial-16);}.cls-17{fill:url(#Tin_Radial-17);}.cls-18{fill:url(#Tin_Radial-18);}.cls-19{fill:url(#Tin_Radial-19);}.cls-20{fill:url(#Tin_Radial-20);}.cls-21{fill:url(#Autumn_Yellow);}.cls-22{fill:url(#Autumn_Yellow-12);}.cls-23{fill:url(#Autumn_Yellow-13);}.cls-24{fill:url(#Autumn_Yellow-14);}.cls-25{fill:url(#Autumn_Yellow-15);}.cls-26{fill:url(#Autumn_Yellow-16);}.cls-27{fill:url(#Autumn_Yellow-17);}.cls-28{fill:url(#Autumn_Yellow-18);}.cls-29{fill:url(#Autumn_Yellow-19);}.cls-30{fill:url(#Autumn_Yellow-20);}.cls-31{fill:url(#Autumn_Yellow-21);}.cls-32{fill:url(#Autumn_Yellow-22);}.cls-33{fill:url(#Autumn_Yellow-23);}.cls-34{fill:url(#Autumn_Yellow-24);}</style><radialGradient id="Tin_Radial" cx="606.96" cy="459.94" r="230.96" gradientUnits="userSpaceOnUse"><stop offset="0.01" stop-color="#c4c5c7"/><stop offset="0.3" stop-color="#bbbdbf"/><stop offset="0.66" stop-color="#a6a8ab"/><stop offset="1" stop-color="#9a9c9f"/></radialGradient><radialGradient id="Tin_Radial-2" cx="606.96" cy="458.44" r="172.32" xlink:href="#Tin_Radial"/><radialGradient id="Tin_Radial-3" cx="610.69" cy="97.35" r="140.26" xlink:href="#Tin_Radial"/><radialGradient id="Tin_Radial-4" cx="424.74" cy="653.07" r="136.98" xlink:href="#Tin_Radial"/><radialGradient id="Tin_Radial-5" cx="195.41" cy="681.78" r="109.53" xlink:href="#Tin_Radial"/><radialGradient id="Tin_Radial-6" cx="122.34" cy="623.02" r="51.52" xlink:href="#Tin_Radial"/><radialGradient id="Tin_Radial-7" cx="351.61" cy="475.39" r="102.23" xlink:href="#Tin_Radial"/><radialGradient id="Tin_Radial-8" cx="228.35" cy="538.07" r="102.78" xlink:href="#Tin_Radial"/><radialGradient id="Tin_Radial-9" cx="790.51" cy="653.07" r="136.98" xlink:href="#Tin_Radial"/><radialGradient id="Tin_Radial-10" cx="1019.84" cy="681.78" r="109.53" xlink:href="#Tin_Radial"/><radialGradient id="Tin_Radial-11" cx="1092.9" cy="623.02" r="51.52" xlink:href="#Tin_Radial"/><radialGradient id="Tin_Radial-12" cx="863.64" cy="475.39" r="102.23" xlink:href="#Tin_Radial"/><radialGradient id="Tin_Radial-13" cx="986.89" cy="538.07" r="102.78" xlink:href="#Tin_Radial"/><radialGradient id="Tin_Radial-14" cx="607.84" cy="716.33" r="46.64" xlink:href="#Tin_Radial"/><radialGradient id="Tin_Radial-15" cx="536.32" cy="436.72" r="52.83" xlink:href="#Tin_Radial"/><radialGradient id="Tin_Radial-16" cx="660.12" cy="437.74" r="58.88" xlink:href="#Tin_Radial"/><radialGradient id="Tin_Radial-17" cx="286.03" cy="1054.73" r="170.23" xlink:href="#Tin_Radial"/><radialGradient id="Tin_Radial-18" cx="929.22" cy="1054.73" r="170.23" xlink:href="#Tin_Radial"/><radialGradient id="Tin_Radial-19" cx="607.62" cy="1179.49" r="164.15" xlink:href="#Tin_Radial"/><radialGradient id="Tin_Radial-20" cx="607.62" cy="1104.66" r="188.04" xlink:href="#Tin_Radial"/><linearGradient id="Autumn_Yellow" x1="607.62" y1="164.79" x2="607.62" y2="1076.33" gradientUnits="userSpaceOnUse"><stop offset="0" stop-color="#fcf2dd"/><stop offset="0" stop-color="#fdecc0"/><stop offset="0" stop-color="#ffe089"/><stop offset="0.55" stop-color="#ffcc02"/><stop offset="0.68" stop-color="#f6c30d"/><stop offset="1" stop-color="#e2b024"/></linearGradient><linearGradient id="Autumn_Yellow-12" x1="178.88" y1="927.58" x2="178.88" y2="997.58" xlink:href="#Autumn_Yellow"/><linearGradient id="Autumn_Yellow-13" x1="255.58" y1="926.98" x2="255.58" y2="998.18" xlink:href="#Autumn_Yellow"/><linearGradient id="Autumn_Yellow-14" x1="337.08" y1="927.58" x2="337.08" y2="998.18" xlink:href="#Autumn_Yellow"/><linearGradient id="Autumn_Yellow-15" x1="404.03" y1="927.58" x2="404.03" y2="997.58" xlink:href="#Autumn_Yellow"/><linearGradient id="Autumn_Yellow-16" x1="447.82" y1="927.58" x2="447.82" y2="997.58" xlink:href="#Autumn_Yellow"/><linearGradient id="Autumn_Yellow-17" x1="506.47" y1="926.98" x2="506.47" y2="1011.48" xlink:href="#Autumn_Yellow"/><linearGradient id="Autumn_Yellow-18" x1="586.37" y1="927.58" x2="586.37" y2="998.18" xlink:href="#Autumn_Yellow"/><linearGradient id="Autumn_Yellow-19" x1="662.17" y1="927.58" x2="662.17" y2="997.58" xlink:href="#Autumn_Yellow"/><linearGradient id="Autumn_Yellow-20" x1="759.77" y1="927.58" x2="759.77" y2="997.58" xlink:href="#Autumn_Yellow"/><linearGradient id="Autumn_Yellow-21" x1="842.37" y1="926.98" x2="842.37" y2="998.18" xlink:href="#Autumn_Yellow"/><linearGradient id="Autumn_Yellow-22" x1="912.02" y1="927.58" x2="912.02" y2="997.58" xlink:href="#Autumn_Yellow"/><linearGradient id="Autumn_Yellow-23" x1="976.87" y1="927.58" x2="976.87" y2="997.58" xlink:href="#Autumn_Yellow"/><linearGradient id="Autumn_Yellow-24" x1="1042.32" y1="927.58" x2="1042.32" y2="997.58" xlink:href="#Autumn_Yellow"/></defs><title>Asset 8SVG</title><g id="Layer_2" data-name="Layer 2"><g id="Layer_1-2" data-name="Layer 1"><path class="cls-1" d="M607,691l-3.05-.92A321.51,321.51,0,0,1,376.08,382.83V281.53H386.6a42.15,42.15,0,0,0,42.1-42.1V228.91H785.22v10.52a42.15,42.15,0,0,0,42.1,42.1h10.52v101.3A321.5,321.5,0,0,1,610,690ZM397.13,301.71v81.13A300.48,300.48,0,0,0,607,669,300.49,300.49,0,0,0,816.8,382.83V301.71A63.31,63.31,0,0,1,765.05,250H448.88A63.32,63.32,0,0,1,397.13,301.71Z"/><path class="cls-2" d="M607,630.08l-1.84-.69A263.77,263.77,0,0,1,434,382.83V330.21h5.26a38.2,38.2,0,0,0,38.15-38.15v-5.26H736.55v5.26a38.19,38.19,0,0,0,38.15,38.15H780v52.62A263.78,263.78,0,0,1,608.8,629.39ZM444.49,340.45v42.38A253.25,253.25,0,0,0,607,618.84a253.25,253.25,0,0,0,162.47-236V340.45a48.77,48.77,0,0,1-43.13-43.13H487.62A48.77,48.77,0,0,1,444.49,340.45Z"/><path class="cls-3" d="M763.44,85a53.29,53.29,0,0,0-5.95,6,12.86,12.86,0,0,0-12.12-8.86,13,13,0,0,0-13,12.67,12.86,12.86,0,0,0,12.86,13c.26,0-2.3,5.39-4.34,8.55-6.7,10.36-14.39,17-25.46,17a26.63,26.63,0,0,1-26.63-26.63,40,40,0,0,1,4-17.42,11.4,11.4,0,0,1,6.6-5.38,14.88,14.88,0,1,0-18.1-7.23,11.9,11.9,0,0,1,1.12,8.47c-4.16,16.1-16.76,28.54-31.12,28.32-25.6-.39-33.27-20.35-34-36.88a19.2,19.2,0,1,0,9.62-36.53c.09-1.2.15-2.42.15-3.64A48.88,48.88,0,0,0,610.69,0a48.88,48.88,0,0,0-16.35,36.49c0,1.23.06,2.44.15,3.64a19.2,19.2,0,1,0,9.62,36.53c-.77,16.53-8.44,36.49-34,36.88-14.36.22-27-12.21-31.12-28.32a11.9,11.9,0,0,1,1.12-8.47A14.86,14.86,0,1,0,522,84a11.4,11.4,0,0,1,6.6,5.38,40,40,0,0,1,4,17.42,26.63,26.63,0,0,1-26.63,26.63c-11.07,0-18.76-6.63-25.46-17-2-3.17-4.61-8.55-4.34-8.55a12.86,12.86,0,0,0,12.86-13,13,13,0,0,0-13-12.67A12.86,12.86,0,0,0,463.89,91a53.29,53.29,0,0,0-5.95-6c-5.69-4.81-12.52-8.65-20.08-9.23L500,194.7H721.4L783.52,75.81C776,76.39,769.13,80.23,763.44,85Z"/><path class="cls-4" d="M605,723.78a139.43,139.43,0,0,1-34.62-2.5,282.94,282.94,0,0,1-33.7-8.52c-22.11-6.94-43.44-16-64.43-25.51-41.83-19.45-81.91-42.36-121.45-65.12L336,613.76c-13.38-7.58-27.63-12.33-43.19-10.62a40.33,40.33,0,0,0-13,3.39A37.89,37.89,0,0,0,269,614.2a39.32,39.32,0,0,0-11.6,25.36,33.19,33.19,0,0,0,11.69,26.95c7.85,6.87,19.74,9.71,29.84,6,10.33-3.78,15-15.08,14.35-25.26-.36-5.19-.66-12.5-7.53-21.5,1.24-2.16,6.6-1.79,8.79-1.41A22.09,22.09,0,0,1,328.14,633a27.55,27.55,0,0,1,3.93,24.62c-4.8,14.19-26.82,24.29-49.85,20.85a42.35,42.35,0,0,1-17.07-6.7A45.71,45.71,0,0,1,245,640.35a50.92,50.92,0,0,1,10-38.05,49.13,49.13,0,0,1,15.83-13.52c23.89-13.08,52.77-5,74.74,7.93l15,8.78c39.24,23.79,77.8,47.89,117.9,69.35a670.71,670.71,0,0,0,61.25,29.59c21,8.28,42.54,16.09,65.29,17.62Z"/><path class="cls-5" d="M305,703.27c-15.3,3.58-31.35,1.53-46.91-2.68-31.41-8.43-61.2-24.61-92.79-38-7.94-3.29-16-6.48-24.34-9.18-16.31-5.3-33.79-10.6-51.11-10.34-18.63.28-37.22,9.27-42.88,28.17C44,681,45.52,691.86,50.27,700.81a35.61,35.61,0,0,0,22.06,17.26c10.88,3,25.15,1.26,31.49-9.19a20.81,20.81,0,0,0,2.94-11.1,14.52,14.52,0,0,0-4-9.95c-10.8,15.51-34.37,20.94-48.69,6.69a20.9,20.9,0,0,1-5.67-10.2,21.2,21.2,0,0,1,.49-12.5,31.72,31.72,0,0,1,9.29-13.67c4.58-4,9.2-5.74,15.22-6.68,13.83-2.17,25.55,2.07,37.91,7.57,15.13,6.76,29.78,15.21,44.95,22.93s30.84,14.94,47,21.49,33,12.18,50.9,15.2a139.61,139.61,0,0,0,27.33,1.7,58.4,58.4,0,0,0,6.93-.66,47.52,47.52,0,0,0,6.87-1.2l6.78-1.69,6.56-2.48c17.48-7.13,30.08-22,36.72-37.72C334.06,689.7,320.38,700,305,703.27Z"/><path class="cls-6" d="M191.13,643.11c-11.75-4.5-23.14-9.52-34.6-14A285.71,285.71,0,0,0,122,617.43c-11.62-2.75-23.31-4.5-34.84-3.35C75.62,615,64.41,619,53.7,625.56a.91.91,0,0,1-1.25-.3.93.93,0,0,1,.06-1c7.79-10.24,20-17.37,33.16-20s26.75-1.22,39.19,2.29a165.28,165.28,0,0,1,35.42,14.56A242.41,242.41,0,0,1,192,641.55a.9.9,0,0,1-.88,1.56Z"/><path class="cls-7" d="M329,415.68c-19.46-35.64-24.24-72.4-24.24-72.4-.22-.83-9.91,23.85-11.06,44.56a217.6,217.6,0,0,0,.14,38.8A232.47,232.47,0,0,0,300.57,465a104.4,104.4,0,0,0,6.15,18.57A88.55,88.55,0,0,0,317,500.55c2.21,2.9,4.5,5.72,6.79,8.5-7.09-22.32-13.09-51.11-11.21-81.69,0,0,22.07,101.43,53.88,139.33,16.78,20,27,30.14,43.89,40.82-14.08-14.14-28.11-32.07-40.12-50.52C347.85,522.71,376.6,502.83,329,415.68Z"/><path class="cls-8" d="M165.48,528.28c-37.84-14.73-74.91-14.76-74.91-14.76-.85-.12,22.38-12.88,42.78-16.68a217.58,217.58,0,0,1,38.5-4.84,232.43,232.43,0,0,1,38.92,1.75,104.37,104.37,0,0,1,19.2,3.72,88.54,88.54,0,0,1,18.12,8c3.16,1.82,6.24,3.73,9.3,5.64-23-4.17-52.36-6.43-82.45-.65,0,0,103.42,8.89,145.09,35.57,22,14.08,33.35,23,46.11,38.29-15.83-12.15-35.4-23.77-55.25-33.32C274,533.25,258,564.3,165.48,528.28Z"/><path class="cls-9" d="M610.25,723.78a139.43,139.43,0,0,0,34.62-2.5,283,283,0,0,0,33.7-8.52c22.11-6.94,43.44-16,64.43-25.51,41.83-19.45,81.91-42.36,121.45-65.12l14.77-8.36c13.38-7.58,27.63-12.33,43.19-10.62a40.33,40.33,0,0,1,13,3.39,37.89,37.89,0,0,1,10.88,7.67,39.32,39.32,0,0,1,11.6,25.36,33.19,33.19,0,0,1-11.69,26.95c-7.85,6.87-19.74,9.71-29.84,6-10.33-3.78-15-15.08-14.35-25.26.36-5.19.66-12.5,7.52-21.5-1.24-2.16-6.6-1.79-8.79-1.41A22.09,22.09,0,0,0,887.1,633a27.55,27.55,0,0,0-3.93,24.62C888,671.81,910,681.9,933,678.47a42.35,42.35,0,0,0,17.07-6.7,45.72,45.72,0,0,0,20.15-31.42,50.92,50.92,0,0,0-10-38.05,49.12,49.12,0,0,0-15.83-13.52c-23.89-13.08-52.77-5-74.74,7.93l-15,8.78c-39.24,23.79-77.8,47.89-117.9,69.35a670.76,670.76,0,0,1-61.25,29.59c-21,8.28-42.54,16.09-65.29,17.62Z"/><path class="cls-10" d="M910.29,703.27c15.3,3.58,31.35,1.53,46.91-2.68,31.41-8.43,61.2-24.61,92.79-38,7.94-3.29,16-6.48,24.34-9.18,16.31-5.3,33.79-10.6,51.11-10.34,18.63.28,37.22,9.27,42.88,28.17,2.93,9.78,1.41,20.63-3.34,29.58a35.61,35.61,0,0,1-22.06,17.26c-10.88,3-25.14,1.26-31.49-9.19a20.82,20.82,0,0,1-2.94-11.1,14.52,14.52,0,0,1,4-9.95c10.8,15.51,34.37,20.94,48.69,6.69a20.89,20.89,0,0,0,5.67-10.2,21.19,21.19,0,0,0-.49-12.5,31.72,31.72,0,0,0-9.29-13.67c-4.58-4-9.2-5.74-15.22-6.68-13.83-2.17-25.55,2.07-37.91,7.57-15.13,6.76-29.78,15.21-44.95,22.93s-30.84,14.94-47,21.49-33,12.18-50.9,15.2a139.6,139.6,0,0,1-27.33,1.7,58.38,58.38,0,0,1-6.93-.66,47.53,47.53,0,0,1-6.87-1.2l-6.78-1.69-6.56-2.48c-17.48-7.13-30.08-22-36.72-37.72C881.18,689.7,894.87,700,910.29,703.27Z"/><path class="cls-11" d="M1024.11,643.11c11.75-4.5,23.14-9.52,34.6-14a285.69,285.69,0,0,1,34.51-11.65c11.62-2.75,23.31-4.5,34.84-3.35,11.56.88,22.78,4.95,33.48,11.49a.91.91,0,0,0,1.25-.3.93.93,0,0,0-.06-1c-7.79-10.24-20-17.37-33.16-20s-26.75-1.22-39.19,2.29A165.29,165.29,0,0,0,1055,621.06a242.43,242.43,0,0,0-31.73,20.49.9.9,0,0,0,.88,1.56Z"/><path class="cls-12" d="M886.23,415.68c19.46-35.64,24.24-72.4,24.24-72.4.23-.83,9.91,23.85,11.06,44.56a217.56,217.56,0,0,1-.14,38.8A232.43,232.43,0,0,1,914.68,465a104.4,104.4,0,0,1-6.15,18.57,88.55,88.55,0,0,1-10.25,16.95c-2.21,2.9-4.5,5.72-6.79,8.5,7.09-22.32,13.09-51.11,11.21-81.69,0,0-22.07,101.43-53.88,139.33-16.78,20-27,30.14-43.89,40.82C819,593.38,833,575.45,845.07,557,867.4,522.71,838.65,502.83,886.23,415.68Z"/><path class="cls-13" d="M1049.76,528.28c37.84-14.73,74.91-14.76,74.91-14.76.85-.12-22.38-12.88-42.78-16.68a217.59,217.59,0,0,0-38.5-4.84,232.43,232.43,0,0,0-38.92,1.75,104.37,104.37,0,0,0-19.2,3.72,88.55,88.55,0,0,0-18.12,8c-3.16,1.82-6.24,3.73-9.3,5.64,23-4.17,52.36-6.43,82.45-.65,0,0-103.42,8.89-145.09,35.57-22,14.08-33.35,23-46.11,38.29,15.83-12.15,35.4-23.77,55.25-33.32C941.21,533.25,957.24,564.3,1049.76,528.28Z"/><path class="cls-14" d="M543.38,705.8a163.55,163.55,0,0,0,129.58,0v8.77c-15.21,4.72-37.31,12.17-64.24,12.28-27.79.11-50.54-7.48-66-12.28Z"/><path class="cls-15" d="M528.3,390.79l-21.73.58c-8.45.29-12,1-14.14,4.23a17.21,17.21,0,0,0-2.48,5.1c-.29,1.17-.73,1.75-1.6,1.75s-1.31-.73-1.31-2.33c0-2.33,2.77-15.6,3.06-16.77.43-1.89.87-2.77,1.75-2.77,1.17,0,2.63,1.45,6.28,1.75,4.23.44,9.77.73,14.58.73h57.75a69.82,69.82,0,0,0,10.06-.73,35.48,35.48,0,0,1,3.94-.72c1,0,1.16.87,1.16,3.06,0,3.06-.44,13.13-.44,16.92-.14,1.45-.43,2.33-1.31,2.33-1.16,0-1.45-.73-1.6-2.92l-.14-1.6c-.3-3.79-4.23-7.87-17.21-8.16l-18.37-.44v59.79c0,13.41,0,24.93.73,31.2.44,4.08,1.31,7.29,5.69,7.87a61.57,61.57,0,0,0,7.44.59c1.6,0,2.33.43,2.33,1.16,0,1-1.17,1.46-2.77,1.46-9.62,0-18.81-.44-22.89-.44-3.35,0-12.54.44-18.37.44-1.89,0-2.91-.44-2.91-1.46,0-.73.58-1.16,2.33-1.16a23.81,23.81,0,0,0,5.25-.59c2.91-.58,3.79-3.79,4.23-8,.73-6.12.73-17.64.73-31.06Z"/><path class="cls-16" d="M687.25,429c.44,0,.87-.29.87-1v-3.06c0-22.17,0-26.25-.29-30.92-.29-5-1.46-7.29-6.27-8.31a30.12,30.12,0,0,0-5.69-.43c-1.6,0-2.48-.3-2.48-1.32s1-1.31,3.06-1.31c7.88,0,17.06.44,21,.44,3.5,0,12.69-.44,18.37-.44,2,0,3.06.3,3.06,1.31s-.88,1.32-2.62,1.32a26,26,0,0,0-4.23.43c-3.94.73-5.1,3.21-5.39,8.31-.29,4.67-.29,8.75-.29,30.92v25.66c0,13.41,0,24.93.72,31.2.44,4.08,1.31,7.29,5.69,7.87a61.57,61.57,0,0,0,7.44.59c1.6,0,2.33.43,2.33,1.16,0,1-1.17,1.46-2.91,1.46-9.48,0-18.67-.44-22.75-.44-3.35,0-12.54.44-18.23.44-2,0-3.06-.44-3.06-1.46,0-.73.58-1.16,2.33-1.16a23.81,23.81,0,0,0,5.25-.59c2.91-.58,3.65-3.79,4.23-8,.73-6.12.73-17.64.73-31.06V437.74a.84.84,0,0,0-.87-.87H631.54a.76.76,0,0,0-.87.87v12.84c0,13.41,0,24.93.72,31.2.44,4.08,1.31,7.29,5.69,7.87a61.67,61.67,0,0,0,7.44.59c1.6,0,2.33.43,2.33,1.16,0,1-1.16,1.46-2.91,1.46-9.48,0-18.67-.44-22.75-.44-3.35,0-12.54.44-18.37.44-1.89,0-2.91-.44-2.91-1.46,0-.73.58-1.16,2.33-1.16a23.81,23.81,0,0,0,5.25-.59c2.91-.58,3.65-3.79,4.23-8,.73-6.12.73-17.64.73-31.06V424.91c0-22.17,0-26.25-.29-30.92-.29-5-1.46-7.29-6.27-8.31a30.12,30.12,0,0,0-5.69-.43c-1.6,0-2.48-.3-2.48-1.32s1-1.31,3.06-1.31c7.88,0,17.06.44,21,.44,3.5,0,12.69-.44,18.37-.44,2,0,3.06.3,3.06,1.31s-.87,1.32-2.62,1.32a25.84,25.84,0,0,0-4.23.43c-3.94.73-5.11,3.21-5.4,8.31-.29,4.67-.29,8.75-.29,30.92V428c0,.73.43,1,.87,1Z"/><polygon class="cls-17" points="526.63 1046.33 45.43 1054.72 526.63 1063.13 526.63 1046.33"/><polygon class="cls-18" points="688.62 1046.33 688.62 1063.13 1169.82 1054.72 688.62 1046.33"/><path class="cls-19" d="M666.77,1166.91a45.86,45.86,0,0,1-16,3.1c-5.91,0-12.45-1.44-17.79-6.23a73.9,73.9,0,0,0-5.67-13.79,86.36,86.36,0,0,0-4.74-7.41c-4.72-12.43-14.93-21.25-14.93-21.25s-10.22,8.82-14.94,21.25A87.06,87.06,0,0,0,588,1150a73.61,73.61,0,0,0-5.67,13.79c-5.34,4.8-11.88,6.24-17.79,6.23a45.81,45.81,0,0,1-16-3.1,24.32,24.32,0,0,0-12.58-3.73,20.29,20.29,0,0,0-11.89,3.73c8,12.16,17.17,16.28,25.89,16.28,13.23,0,25.47-9.46,31.25-14.72a48.64,48.64,0,0,0-1,9.5c0,10.23,3.72,21.08-1.09,30.77-3.58,7.24-10.59,10.37-18,10.37a27.64,27.64,0,0,1-5.05-.48c2.58.48,5.3,4,8.42,4.62a16.62,16.62,0,0,0,3.14.29c8.09,0,17-5.4,22-11.21,8.91-10.33,8.16-24.21,6.68-37.06-.06-.52-.12-1-.18-1.57a63.67,63.67,0,0,0,10,12.7c-2.43,13.81-6.85,39.46-6.85,42.83a8.4,8.4,0,1,0,16.79,0c0-3.37-4.42-29-6.85-42.84a63.39,63.39,0,0,0,10-12.71c-.06.53-.13,1.05-.18,1.58-1.49,12.85-2.23,26.73,6.67,37.06,5,5.8,13.94,11.21,22,11.21a16.63,16.63,0,0,0,3.15-.29c3.12-.61,5.84-4.14,8.42-4.62a27.61,27.61,0,0,1-5.05.48c-7.37,0-14.37-3.14-18-10.37-4.81-9.69-1.07-20.54-1.08-30.77a48.65,48.65,0,0,0-1-9.5c5.78,5.25,18,14.71,31.25,14.71,8.72,0,17.88-4.12,25.89-16.28a20.3,20.3,0,0,0-11.89-3.73A24.3,24.3,0,0,0,666.77,1166.91ZM549.9,1177.43c-6.3,0-11.87-2.7-16.88-8.21a15.05,15.05,0,0,1,2.88-.28,18.83,18.83,0,0,1,9.63,2.91l.33.2.36.15a51.89,51.89,0,0,0,13.47,3.3A28.06,28.06,0,0,1,549.9,1177.43Zm36.4,32a30.09,30.09,0,0,1-5.59,4.94,23.69,23.69,0,0,0,2.29-3.71c3.91-7.88,3-16.29,2.19-23.71a82.91,82.91,0,0,1-.66-9c0-7.1,1.92-14.73,5.7-22.72.11,6.78.9,13.56,1.71,20.53C593.33,1187.91,594,1200.48,586.3,1209.47Zm21.33-32c-4.33-5.12-10.08-13.65-10.08-22.91s5.76-17.82,10.1-22.93c4.61,5.49,10.05,14.09,10.05,22.93C617.7,1163.85,611.95,1172.38,607.62,1177.5Zm26.92,36.91a29.91,29.91,0,0,1-5.59-4.94c-7.75-9-7-21.56-5.63-33.74.8-6.95,1.59-13.71,1.7-20.47,3.76,8,5.67,15.62,5.69,22.72a82.81,82.81,0,0,1-.65,9c-.8,7.42-1.71,15.82,2.19,23.71A23,23,0,0,0,634.54,1214.41Zm30.81-37a28.12,28.12,0,0,1-9.81-1.93,51.94,51.94,0,0,0,13.48-3.3l.36-.15.33-.2a18.83,18.83,0,0,1,9.63-2.91,15.05,15.05,0,0,1,2.88.28C677.21,1174.73,671.65,1177.43,665.35,1177.43Z"/><path class="cls-20" d="M699.65,1076.84a75.26,75.26,0,0,0-23.74-8.29c-20-3.31-51.1,5.35-64.42,26.27v-24a12.49,12.49,0,1,0-7.74,0v24c-13.32-20.92-44.45-29.58-64.42-26.27a75.26,75.26,0,0,0-23.74,8.29c-58.5,22.18-56.14,78.55-56.14,78.55,13.82,4.37,26-9.75,33.05-19.55,9.79-13.5,10.24-30.43,19.23-44a101.54,101.54,0,0,1,10.06-12.9,69.63,69.63,0,0,1,18.3-5.77,49.35,49.35,0,0,1,8.92-.59c-8.43,5.27-28.14,21.44-18.14,53.2-.26-.84,8.64-12.53,9.53-15.34,4.1-12.93,1.54-26.67,10.42-37.8,20.29,1,46.14,12,52.94,33v9.8c-11.95,2.55-16,12.93-20,23-2,5.13-3.88,10-6.73,13.83a18.21,18.21,0,0,1-13.7,7.68,16.62,16.62,0,0,1-11-3.66,12.85,12.85,0,0,1-1.53-5c-.19-2.93.82-5.72,1.87-8.41.8-2.07,1.73-4.18,1.61-6.44a5.91,5.91,0,0,0-5.34-5.91l-.37,0c-3.31,0-6.27,3.79-6.69,8.7-.33,3.84,0,8.14,1.83,11.61a18.59,18.59,0,0,0,1.69,2.68,13.63,13.63,0,0,0,2.14,2.24c4.33,4.81,10,7.34,15.9,7.07a21.09,21.09,0,0,0,15.89-8.84c3.09-4.16,5.14-9.42,7.11-14.5,3.72-9.57,7.28-18.64,17.27-21.12v.08h7.74v-.08c10,2.48,13.56,11.55,17.27,21.12,2,5.08,4,10.34,7.11,14.5a21.09,21.09,0,0,0,15.89,8.84c6,.27,11.57-2.26,15.9-7.07a13.5,13.5,0,0,0,2.14-2.24,18.59,18.59,0,0,0,1.69-2.68c1.8-3.47,2.16-7.77,1.83-11.61-.42-4.91-3.38-8.7-6.7-8.7l-.37,0a5.91,5.91,0,0,0-5.34,5.91c-.11,2.26.82,4.38,1.62,6.44,1,2.69,2.05,5.48,1.87,8.41a12.91,12.91,0,0,1-1.53,5,16.59,16.59,0,0,1-11,3.66,18.22,18.22,0,0,1-13.7-7.68c-2.86-3.85-4.74-8.7-6.74-13.83-3.92-10.11-8-20.5-20-23v-9.8c6.8-21,32.65-32,52.94-33,8.88,11.14,6.32,24.87,10.42,37.8.89,2.81,9.79,14.5,9.53,15.34,10-31.75-9.71-47.92-18.14-53.2a49.39,49.39,0,0,1,8.92.59,69.65,69.65,0,0,1,18.29,5.77,101.57,101.57,0,0,1,10.06,12.9c9,13.62,9.45,30.54,19.23,44,7.09,9.8,19.23,23.93,33.05,19.55C755.8,1155.4,758.15,1099,699.65,1076.84Zm-149.64,65c-1.21,3.11-2.28,6.19-2.06,9.64,0,.22,0,.43.06.65l-.29-.36a15.49,15.49,0,0,1-1.43-2.26,18.91,18.91,0,0,1-1.52-10c.31-3.59,2.25-6.07,3.82-6.07h.13a3.1,3.1,0,0,1,2.71,3.19,12.23,12.23,0,0,1-1.21,4.69Zm113.79-5.25a3.1,3.1,0,0,1,2.71-3.19h.13c1.56,0,3.52,2.49,3.82,6.07a18.92,18.92,0,0,1-1.51,10,16,16,0,0,1-1.43,2.25l-.29.36c0-.21,0-.43.06-.65.21-3.45-.85-6.53-2.06-9.64l-.23-.57A12.26,12.26,0,0,1,663.8,1136.56Z"/><path class="cls-21" d="M58.71,836.84c0,15.4,0,28.07.8,34.81.48,4.65,1.44,8.18,6.26,8.82a70,70,0,0,0,7.22.64c1,0,1.28.48,1.28,1,0,.8-.8,1.28-2.57,1.28-8.82,0-18.93-.48-19.73-.48s-10.91.48-15.72.48c-1.76,0-2.57-.32-2.57-1.28,0-.48.32-1,1.28-1a24.78,24.78,0,0,0,4.81-.64c3.21-.64,4-4.17,4.65-8.82.8-6.74.8-19.41.8-34.81V769l-23.74.32c-9.95.16-13.8,1.28-16.36,5.13a28.22,28.22,0,0,0-2.73,5c-.48,1.28-1,1.6-1.6,1.6-.48,0-.8-.48-.8-1.44,0-1.6,3.21-15.4,3.53-16.68.32-1,1-3,1.6-3,1.12,0,2.73,1.6,7.06,1.93,4.65.48,10.75.8,12.67.8H85a64.17,64.17,0,0,0,11.39-.8c2.41-.32,3.85-.8,4.49-.8.8,0,.8,1,.8,1.93,0,4.81-.48,15.88-.48,17.65,0,1.44-.48,2.09-1.12,2.09-.8,0-1.12-.48-1.28-2.73l-.16-1.77c-.48-4.81-4.33-8.5-19.73-8.82L58.71,769Z"/><path class="cls-21" d="M151.28,766.09c1.93-5.29,2.57-6.26,3.53-6.26s1.6.8,3.53,5.77c2.41,6.1,27.59,72.35,37.38,96.73,5.77,14.28,10.43,16.84,13.8,17.81a20.72,20.72,0,0,0,6.42,1c1,0,1.6.16,1.6,1,0,1-1.44,1.28-3.21,1.28-2.41,0-14.12,0-25.19-.32-3-.16-4.81-.16-4.81-1.12,0-.64.48-1,1.12-1.12,1-.32,1.92-1.77,1-4.33L171.5,837a1.4,1.4,0,0,0-1.44-1H135.56a1.69,1.69,0,0,0-1.6,1.28l-9.63,28.39a33.86,33.86,0,0,0-2.25,10.75c0,3.21,3.37,4.65,6.1,4.65h1.6c1.12,0,1.6.32,1.6,1,0,1-1,1.28-2.41,1.28-3.85,0-10.75-.48-12.51-.48s-10.59.48-18.13.48c-2.09,0-3-.32-3-1.28,0-.64.64-1,1.44-1,1.12,0,3.37-.16,4.65-.32,7.38-1,10.59-7.06,13.47-15.08ZM168,830.26c.8,0,.8-.48.64-1.12l-15.24-43.31q-1.2-3.61-2.41,0l-14.12,43.31c-.32.8,0,1.12.48,1.12Z"/><path class="cls-21" d="M250.27,841.81c0-8.66-1.6-12.19-3.69-16.84-1.12-2.57-22.62-37.86-28.23-46.2-4-5.94-8-9.94-10.91-11.87a15.34,15.34,0,0,0-6.9-2.57c-.8,0-1.6-.32-1.6-1.12,0-.64.64-1.12,2.09-1.12,3,0,15.08.48,15.88.48,1.12,0,7.22-.48,13.48-.48,1.76,0,2.08.48,2.08,1.12s-1,.8-2.41,1.44a3.25,3.25,0,0,0-2.08,2.89c0,1.93.8,3.85,2.08,6.26,2.57,4.65,26.63,46,29.52,50.69,3-6.74,23.42-41.87,26.63-47.16a15.65,15.65,0,0,0,2.73-8.18c0-2.25-.64-4-2.57-4.49-1.44-.48-2.41-.8-2.41-1.6,0-.64,1-1,2.57-1,4.17,0,9.3.48,10.59.48,1,0,12.51-.48,15.56-.48,1.12,0,2.08.32,2.08,1,0,.8-.8,1.28-2.08,1.28a15.27,15.27,0,0,0-7.38,2.25c-3.21,1.92-5,3.85-8.5,8.18-5.29,6.42-27.75,44.12-30.64,51-2.41,5.77-2.41,10.75-2.41,16v13.8c0,2.57,0,9.3.48,16,.32,4.65,1.76,8.18,6.58,8.82a70,70,0,0,0,7.22.64c1,0,1.28.48,1.28,1,0,.8-.8,1.28-2.57,1.28-8.82,0-18.93-.48-19.73-.48s-10.91.48-15.72.48c-1.77,0-2.57-.32-2.57-1.28,0-.48.32-1,1.28-1a24.77,24.77,0,0,0,4.81-.64c3.21-.64,4.65-4.17,5-8.82.48-6.74.48-13.48.48-16Z"/><path class="cls-21" d="M350.86,837.16c0,23.58.64,33.85,3.53,36.74,2.57,2.57,6.74,3.69,19.25,3.69,8.5,0,15.56-.16,19.41-4.81a22.35,22.35,0,0,0,4.17-9.63c.16-1.28.48-2.08,1.44-2.08.8,0,1,.64,1,2.41a102.51,102.51,0,0,1-2.41,16c-1.12,3.69-1.6,4.33-10.11,4.33-11.55,0-19.89-.32-26.63-.48-6.74-.32-11.71-.48-16.36-.48-.64,0-3.37.16-6.58.16-3.21.16-6.74.32-9.14.32-1.77,0-2.57-.32-2.57-1.28,0-.48.32-1,1.28-1a24.77,24.77,0,0,0,4.81-.64c3.21-.64,4-4.17,4.65-8.82.8-6.74.8-19.41.8-34.81V808.6c0-25,0-29.52-.32-34.65-.32-5.46-1.6-8-6.9-9.14a30,30,0,0,0-5.46-.48c-.64,0-1.28-.32-1.28-1,0-1,.8-1.28,2.57-1.28,7.22,0,17.33.48,18.13.48s12.51-.48,17.33-.48c1.76,0,2.57.32,2.57,1.28,0,.64-.64,1-1.28,1a37.71,37.71,0,0,0-5.29.48c-4.65.8-5.94,3.53-6.26,9.14-.32,5.13-.32,9.62-.32,34.65Z"/><path class="cls-21" d="M473.43,759.84c36.09,0,63,22.78,63,60.16,0,35.93-25.35,65.61-64,65.61-44,0-62.24-34.17-62.24-63C410.22,796.57,429.15,759.84,473.43,759.84Zm3.37,119.67c14.44,0,44.28-8.34,44.28-55,0-38.5-23.42-59.2-48.77-59.2-26.79,0-46.84,17.65-46.84,52.78C425.46,855.45,447.92,879.51,476.8,879.51Z"/><path class="cls-21" d="M570.49,808.6c0-25,0-29.52-.32-34.65-.32-5.46-1.6-8-6.9-9.14a30,30,0,0,0-5.46-.48c-.64,0-1.28-.32-1.28-1,0-1,.8-1.28,2.57-1.28,7.22,0,17.33.48,18.13.48,1.77,0,14-.48,18.93-.48,10.11,0,20.86,1,29.36,7.06,4,2.89,11.07,10.75,11.07,21.82,0,11.87-5,23.74-19.41,37.06,13.15,16.84,24.06,31.12,33.37,41.07,8.66,9.14,15.56,10.91,19.57,11.55a38.49,38.49,0,0,0,6.26.48c.8,0,1.44.48,1.44,1,0,1-1,1.28-3.85,1.28H662.57c-9,0-13-.8-17.16-3-6.9-3.69-12.51-11.55-21.66-23.58-6.74-8.82-14.28-19.57-17.49-23.74a2.58,2.58,0,0,0-2.08-1l-19.73-.32c-.8,0-1.12.48-1.12,1.28v3.85c0,15.4,0,28.07.8,34.81.48,4.65,1.44,8.18,6.26,8.82a70,70,0,0,0,7.22.64c1,0,1.28.48,1.28,1,0,.8-.8,1.28-2.57,1.28-8.82,0-18.93-.48-19.73-.48-.16,0-10.27.48-15.08.48-1.77,0-2.57-.32-2.57-1.28,0-.48.32-1,1.28-1a24.77,24.77,0,0,0,4.81-.64c3.21-.64,4-4.17,4.65-8.82.8-6.74.8-19.41.8-34.81Zm12.83,14a2.1,2.1,0,0,0,1.12,1.93c2.41,1.44,9.79,2.57,16.84,2.57,3.85,0,8.34-.48,12-3,5.61-3.85,9.79-12.51,9.79-24.71,0-20.05-10.59-32.08-27.75-32.08a48.45,48.45,0,0,0-10.75,1,1.94,1.94,0,0,0-1.28,1.93Z"/><path class="cls-21" d="M679.58,881.27c-2.24-1.12-2.41-1.76-2.41-6.1,0-8,.64-14.44.8-17,.16-1.76.48-2.57,1.28-2.57,1,0,1.12.48,1.12,1.77a28.26,28.26,0,0,0,.48,5.94c2.41,11.87,13,16.36,23.74,16.36,15.4,0,22.94-11.07,22.94-21.34,0-11.07-4.65-17.48-18.45-28.88l-7.22-5.94c-17-14-20.85-23.9-20.85-34.81,0-17.16,12.83-28.88,33.21-28.88a62.17,62.17,0,0,1,14.92,1.6,26.25,26.25,0,0,0,5.61.8c1.28,0,1.6.32,1.6,1.12s-.64,6.1-.64,17c0,2.57-.32,3.69-1.12,3.69-1,0-1.12-.8-1.28-2.09a28.19,28.19,0,0,0-2.08-8c-1-1.77-5.3-8.5-20.05-8.5-11.07,0-19.73,6.9-19.73,18.61,0,9.14,4.17,14.92,19.57,26.95l4.49,3.53c18.93,14.92,23.42,24.87,23.42,37.7,0,6.58-2.57,18.77-13.64,26.63-6.9,4.81-15.56,6.74-24.22,6.74C693.54,885.61,686.16,884.48,679.58,881.27Z"/><path class="cls-21" d="M930.33,836.84c0,15.4,0,28.07.8,34.81.48,4.65,1.44,8.18,6.26,8.82a70,70,0,0,0,7.22.64c1,0,1.28.48,1.28,1,0,.8-.8,1.28-2.57,1.28-8.82,0-18.93-.48-19.73-.48s-10.91.48-15.72.48c-1.77,0-2.57-.32-2.57-1.28,0-.48.32-1,1.28-1a24.77,24.77,0,0,0,4.81-.64c3.21-.64,4-4.17,4.65-8.82.8-6.74.8-19.41.8-34.81V820a.92.92,0,0,0-1-1h-68a.84.84,0,0,0-1,1v16.84c0,15.4,0,28.07.8,34.81.48,4.65,1.44,8.18,6.26,8.82a70,70,0,0,0,7.22.64c1,0,1.28.48,1.28,1,0,.8-.8,1.28-2.57,1.28-8.82,0-18.93-.48-19.73-.48s-10.91.48-15.72.48c-1.76,0-2.57-.32-2.57-1.28,0-.48.32-1,1.28-1a24.79,24.79,0,0,0,4.81-.64c3.21-.64,4-4.17,4.65-8.82.8-6.74.8-19.41.8-34.81V808.6c0-25,0-29.52-.32-34.65-.32-5.46-1.6-8-6.9-9.14a30,30,0,0,0-5.45-.48c-.64,0-1.28-.32-1.28-1,0-1,.8-1.28,2.57-1.28,7.22,0,17.33.48,18.13.48s10.91-.48,15.72-.48c1.76,0,2.57.32,2.57,1.28,0,.64-.64,1-1.28,1a23.85,23.85,0,0,0-4,.48c-4.33.8-5.62,3.53-5.94,9.14-.32,5.13-.32,9.62-.32,34.65V812a.84.84,0,0,0,1,1h68a.84.84,0,0,0,1-1V808.6c0-25,0-29.52-.32-34.65-.32-5.46-1.6-8-6.9-9.14a30,30,0,0,0-5.46-.48c-.64,0-1.28-.32-1.28-1,0-1,.8-1.28,2.57-1.28,7.22,0,17.33.48,18.13.48s10.91-.48,15.72-.48c1.77,0,2.57.32,2.57,1.28,0,.64-.64,1-1.28,1a23.86,23.86,0,0,0-4,.48c-4.33.8-5.61,3.53-5.94,9.14-.32,5.13-.32,9.62-.32,34.65Z"/><path class="cls-21" d="M1000.92,836.84c0,15.4,0,28.07.8,34.81.48,4.65,1.44,8.18,6.26,8.82a70,70,0,0,0,7.22.64c1,0,1.28.48,1.28,1,0,.8-.8,1.28-2.57,1.28-8.82,0-18.93-.48-19.73-.48s-10.91.48-15.72.48c-1.77,0-2.57-.32-2.57-1.28,0-.48.32-1,1.28-1a24.77,24.77,0,0,0,4.81-.64c3.21-.64,4-4.17,4.65-8.82.8-6.74.8-19.41.8-34.81V808.6c0-25,0-29.52-.32-34.65-.32-5.46-1.92-8.18-5.45-9a21.06,21.06,0,0,0-5-.64c-.64,0-1.28-.32-1.28-1,0-1,.8-1.28,2.57-1.28,5.29,0,15.4.48,16.2.48s10.91-.48,15.72-.48c1.77,0,2.57.32,2.57,1.28,0,.64-.64,1-1.28,1a23.86,23.86,0,0,0-4,.48c-4.33.8-5.61,3.53-5.94,9.14-.32,5.13-.32,9.62-.32,34.65Z"/><path class="cls-21" d="M1071.51,837.16c0,23.58.64,33.85,3.53,36.74,2.57,2.57,6.74,3.69,19.25,3.69,8.5,0,15.56-.16,19.41-4.81a22.35,22.35,0,0,0,4.17-9.63c.16-1.28.48-2.08,1.44-2.08.8,0,1,.64,1,2.41a102.51,102.51,0,0,1-2.41,16c-1.12,3.69-1.6,4.33-10.11,4.33-11.55,0-19.89-.32-26.63-.48-6.74-.32-11.71-.48-16.36-.48-.64,0-3.37.16-6.58.16-3.21.16-6.74.32-9.14.32-1.77,0-2.57-.32-2.57-1.28,0-.48.32-1,1.28-1a24.77,24.77,0,0,0,4.81-.64c3.21-.64,4-4.17,4.65-8.82.8-6.74.8-19.41.8-34.81V808.6c0-25,0-29.52-.32-34.65-.32-5.46-1.6-8-6.9-9.14a30,30,0,0,0-5.46-.48c-.64,0-1.28-.32-1.28-1,0-1,.8-1.28,2.57-1.28,7.22,0,17.33.48,18.13.48s12.51-.48,17.33-.48c1.76,0,2.57.32,2.57,1.28,0,.64-.64,1-1.28,1a37.71,37.71,0,0,0-5.29.48c-4.65.8-5.94,3.53-6.26,9.14-.32,5.13-.32,9.62-.32,34.65Z"/><path class="cls-21" d="M1166.48,837.16c0,23.58.64,33.85,3.53,36.74,2.57,2.57,6.74,3.69,19.25,3.69,8.5,0,15.56-.16,19.41-4.81a22.36,22.36,0,0,0,4.17-9.63c.16-1.28.48-2.08,1.44-2.08.8,0,1,.64,1,2.41a102.34,102.34,0,0,1-2.41,16c-1.12,3.69-1.6,4.33-10.11,4.33-11.55,0-19.89-.32-26.63-.48-6.74-.32-11.71-.48-16.36-.48-.64,0-3.37.16-6.58.16-3.21.16-6.74.32-9.14.32-1.76,0-2.57-.32-2.57-1.28,0-.48.32-1,1.28-1a24.79,24.79,0,0,0,4.81-.64c3.21-.64,4-4.17,4.65-8.82.8-6.74.8-19.41.8-34.81V808.6c0-25,0-29.52-.32-34.65-.32-5.46-1.6-8-6.9-9.14a30,30,0,0,0-5.45-.48c-.64,0-1.28-.32-1.28-1,0-1,.8-1.28,2.57-1.28,7.22,0,17.33.48,18.13.48s12.51-.48,17.33-.48c1.77,0,2.57.32,2.57,1.28,0,.64-.64,1-1.28,1a37.67,37.67,0,0,0-5.29.48c-4.65.8-5.94,3.53-6.26,9.14-.32,5.13-.32,9.62-.32,34.65Z"/><path class="cls-22" d="M208.13,978.88c0,11.9-8.8,18.7-26.3,18.7h-32.2v-70h30.2c15.6,0,24.6,6.6,24.6,18,0,8-4.3,13.3-10.7,15.9C202.73,963.48,208.13,969.38,208.13,978.88ZM157,933.68v25.4h22.3c11.2,0,17.7-4.3,17.7-12.7s-6.5-12.7-17.7-12.7Zm43.7,44.6c0-9.1-6.7-13.1-19-13.1H157v26.3h24.7C194,991.48,200.73,987.48,200.73,978.28Z"/><path class="cls-23" d="M218.83,962.58c0-20.4,15.6-35.6,36.8-35.6,21,0,36.7,15.1,36.7,35.6s-15.7,35.6-36.7,35.6C234.43,998.18,218.83,983,218.83,962.58Zm66.1,0c0-16.7-12.5-29-29.3-29s-29.5,12.3-29.5,29,12.6,29,29.5,29S284.93,979.28,284.93,962.58Z"/><path class="cls-24" d="M308.33,967.68v-40.1h7.4v39.8c0,16.6,7.8,24.2,21.4,24.2s21.5-7.6,21.5-24.2v-39.8h7.2v40.1c0,20.1-10.8,30.5-28.7,30.5S308.33,987.78,308.33,967.68Z"/><path class="cls-25" d="M400.33,934h-24.6v-6.4h56.6V934h-24.6v63.6h-7.4Z"/><path class="cls-26" d="M444.12,927.58h7.4v70h-7.4Z"/><path class="cls-27" d="M544.83,1003.48a21.48,21.48,0,0,1-17,8c-8.2,0-15-3.7-24.2-13.3-20.5-.6-35.5-15.6-35.5-35.6,0-20.4,15.6-35.6,36.8-35.6,21,0,36.7,15.1,36.7,35.6,0,17.9-11.9,31.6-28.9,34.9,5.3,5.6,10.2,8.1,15.2,8.1,5.3,0,9.6-2.1,13.3-6.4Zm-39.9-11.9c16.8,0,29.3-12.4,29.3-29s-12.5-29-29.3-29-29.5,12.4-29.5,29S488,991.58,504.92,991.58Z"/><path class="cls-28" d="M557.62,967.68v-40.1H565v39.8c0,16.6,7.8,24.2,21.4,24.2s21.5-7.6,21.5-24.2v-39.8h7.2v40.1c0,20.1-10.8,30.5-28.7,30.5S557.62,987.78,557.62,967.68Z"/><path class="cls-29" d="M686.92,991.18v6.4h-49.5v-70h48V934h-40.6v24.9H681v6.3h-36.2v26Z"/><path class="cls-30" d="M789,927.58v70h-7.3v-32.3h-43.8v32.3h-7.4v-70h7.4v31.2h43.8v-31.2Z"/><path class="cls-31" d="M805.62,962.58c0-20.4,15.6-35.6,36.8-35.6,21,0,36.7,15.1,36.7,35.6s-15.7,35.6-36.7,35.6C821.22,998.18,805.62,983,805.62,962.58Zm66.1,0c0-16.7-12.5-29-29.3-29s-29.5,12.3-29.5,29,12.6,29,29.5,29S871.72,979.28,871.72,962.58Z"/><path class="cls-32" d="M908.32,934h-24.6v-6.4h56.6V934h-24.6v63.6h-7.4Z"/><path class="cls-33" d="M1001.62,991.18v6.4h-49.5v-70h48V934h-40.6v24.9h36.2v6.3h-36.2v26Z"/><path class="cls-34" d="M1019,927.58h7.4v63.6h39.2v6.4H1019Z"/></g></g></svg>